<svg width="221" height="78" viewBox="0 0 221 78" fill="none" xmlns="http://www.w3.org/2000/svg">
<path d="M2.18207 32.4564C3.67917 26.0563 7.7167 17.1495 12.0139 10.5943C16.0393 4.45362 22.482 3.68965 31.2024 3.68965C40.5011 3.68965 48.1811 9.21664 54.29 15.4108C54.5426 15.667 54.7919 15.9189 55.0375 16.1673C60.3624 21.5505 64 25.2279 64 32.9442C64 42.7215 58.2565 50.3838 51.5597 57.4428C48.4073 60.7656 45.3598 61.6602 42.1182 61.7508C40.4583 61.7971 38.7479 61.632 36.9 61.4461L36.7384 61.4298C34.956 61.2503 33.0569 61.0591 31.0649 61.0591C29.2724 61.0591 27.336 61.1415 25.3868 61.2244C24.3098 61.2703 23.2289 61.3163 22.1662 61.3486C19.1383 61.4408 16.2018 61.426 13.6284 61.0248C11.0477 60.6225 8.94683 59.8479 7.49318 58.5129C6.07471 57.2101 5.15587 55.2652 5.14255 52.2492C5.11332 45.6369 4.00247 42.0114 3.07739 39.2981C3.02609 39.1477 2.97575 39.0009 2.92653 38.8574C2.10252 36.455 1.59371 34.9716 2.18207 32.4564Z" stroke="#045691" stroke-width="2"/>
<path d="M62.0118 34.4805L62.0112 34.4978V34.5151C62.0112 35.7117 62.0318 36.9064 62.0521 38.0908C62.1218 42.1489 62.1895 46.0856 61.4223 49.5603C60.9346 51.769 60.119 53.7189 58.7895 55.3295C57.4659 56.933 55.587 58.256 52.8806 59.1451C48.1586 60.6964 45.0738 62.1937 42.5946 63.3969C42.0271 63.6724 41.4913 63.9324 40.9749 64.1742C38.2474 65.4511 36.0268 66.2414 32.2609 66.2414C21.5427 66.2414 10.9979 61.3882 5.08907 53.7009C1.12916 48.5492 1 41.9386 1 34.5151C1 30.0045 2.77901 26.7961 5.43564 23.9446C6.77691 22.505 8.33611 21.1634 10.0111 19.7908C10.468 19.4163 10.935 19.0384 11.4079 18.6558C12.6521 17.649 13.9368 16.6093 15.1851 15.5134C16.7454 14.1435 18.105 12.5066 19.3804 10.8675C19.764 10.3746 20.1378 9.88447 20.5073 9.39993C21.3858 8.2481 22.2403 7.12777 23.1449 6.07561C25.6927 3.11245 28.3869 1 32.2609 1C36.8333 1 41.1521 2.68267 45.2568 5.07102C48.5539 6.98947 51.6442 9.31929 54.592 11.5417C55.3263 12.0953 56.0518 12.6423 56.7694 13.1745C59.589 15.2658 60.989 18.1678 61.6408 21.7827C62.2997 25.4369 62.1771 29.7161 62.0118 34.4805Z" stroke="#045691" stroke-width="2"/>
<path d="M2.46994 35.0525C2.46994 30.9209 3.96056 25.1349 6.22729 20.3769C7.35799 18.0035 8.65505 15.9436 10.0069 14.4934C11.3798 13.0206 12.6741 12.3171 13.8045 12.3171C15.3317 12.3171 16.2768 12.2988 17.0128 12.1955C17.7997 12.0851 18.3323 11.8798 19.0269 11.5805C19.1318 11.5353 19.2424 11.487 19.3608 11.4353C20.7214 10.8413 23.0961 9.8046 29.2923 7.99631C32.538 7.04908 34.9306 7.12505 36.8278 7.71014C38.7368 8.2989 40.2496 9.43454 41.6924 10.7972C42.2772 11.3496 42.8354 11.9242 43.407 12.5126C43.545 12.6547 43.6838 12.7975 43.824 12.9411C44.5349 13.6694 45.273 14.4072 46.0637 15.0761C47.6561 16.4233 49.5063 17.5292 51.9288 17.8044C55.8242 18.247 58.3453 20.5866 59.9318 23.8313C61.536 27.1122 62.1429 31.2589 62.1429 35.0525C62.1429 43.7668 55.8516 49.5548 48.8182 54.9344C43.6497 58.8877 38.7544 61.7586 31.8734 61.7586C27.1321 61.7586 23.5713 60.1054 19.9678 57.9884C19.2162 57.5469 18.458 57.0815 17.6846 56.6067C14.7825 54.8253 11.6666 52.9126 7.8831 51.6368C5.68911 50.897 4.32364 49.9144 3.46248 48.8236C2.60129 47.7328 2.17826 46.4501 2.0137 44.9932C1.84735 43.5205 1.94962 41.9194 2.10658 40.2159C2.1342 39.9161 2.16362 39.6124 2.19331 39.306C2.32889 37.9065 2.46994 36.4505 2.46994 35.0525Z" stroke="#045691" stroke-width="2"/>
<path d="M76.0271 32.6752H78.4571V43.4152C78.3771 43.4352 78.2271 43.4852 78.0071 43.5652C77.7871 43.6252 77.5671 43.6552 77.3471 43.6552C76.9471 43.6552 76.6271 43.5352 76.3871 43.2952C76.1471 43.0352 76.0271 42.7152 76.0271 42.3352V32.6752ZM78.4571 36.2152L76.0271 36.1852V26.7352C76.0271 26.3352 76.1471 26.0152 76.3871 25.7752C76.6271 25.5352 76.9471 25.4152 77.3471 25.4152C77.5671 25.4152 77.7871 25.4452 78.0071 25.5052C78.2271 25.5652 78.3771 25.6152 78.4571 25.6552V36.2152ZM77.3471 35.3152V33.2752H86.3771C86.4371 33.3552 86.4971 33.4852 86.5571 33.6652C86.6171 33.8452 86.6471 34.0352 86.6471 34.2352C86.6471 34.5552 86.5671 34.8152 86.4071 35.0152C86.2471 35.2152 86.0171 35.3152 85.7171 35.3152H77.3471ZM77.3471 43.6552V41.6152H87.4571C87.5171 41.6952 87.5771 41.8252 87.6371 42.0052C87.6971 42.1652 87.7271 42.3552 87.7271 42.5752C87.7271 42.8952 87.6471 43.1552 87.4871 43.3552C87.3271 43.5552 87.0971 43.6552 86.7971 43.6552H77.3471ZM77.3471 27.4852V25.4152H87.3071C87.3671 25.4952 87.4271 25.6252 87.4871 25.8052C87.5471 25.9852 87.5771 26.1752 87.5771 26.3752C87.5771 26.6952 87.4971 26.9652 87.3371 27.1852C87.1771 27.3852 86.9471 27.4852 86.6471 27.4852H77.3471ZM103.457 34.5052V37.5652H101.057V34.6252C101.057 33.5052 100.737 32.6852 100.097 32.1652C99.4768 31.6452 98.6368 31.3852 97.5768 31.3852C96.7768 31.3852 96.0668 31.4852 95.4468 31.6852C94.8268 31.8852 94.2968 32.1152 93.8568 32.3752V37.5652H91.4568V32.4952C91.4568 32.0752 91.5368 31.7352 91.6968 31.4752C91.8768 31.1952 92.1768 30.9252 92.5968 30.6652C93.1168 30.3652 93.8068 30.0852 94.6668 29.8252C95.5268 29.5452 96.4968 29.4052 97.5768 29.4052C99.3968 29.4052 100.827 29.8252 101.867 30.6652C102.927 31.4852 103.457 32.7652 103.457 34.5052ZM91.4568 35.9152H93.8568V43.5952C93.7568 43.6352 93.6068 43.6752 93.4068 43.7152C93.2068 43.7752 92.9868 43.8052 92.7468 43.8052C92.3268 43.8052 92.0068 43.7252 91.7868 43.5652C91.5668 43.3852 91.4568 43.1052 91.4568 42.7252V35.9152ZM101.057 35.9152H103.457V43.5952C103.357 43.6352 103.197 43.6752 102.977 43.7152C102.777 43.7752 102.567 43.8052 102.347 43.8052C101.907 43.8052 101.577 43.7252 101.357 43.5652C101.157 43.3852 101.057 43.1052 101.057 42.7252V35.9152ZM117.95 29.5252C118.29 29.5252 118.56 29.6152 118.76 29.7952C118.98 29.9752 119.09 30.2352 119.09 30.5752C119.09 30.8352 118.98 31.3252 118.76 32.0452C118.54 32.7652 118.25 33.6252 117.89 34.6252C117.53 35.6252 117.13 36.6752 116.69 37.7752C116.27 38.8552 115.83 39.9052 115.37 40.9252C114.93 41.9252 114.52 42.7952 114.14 43.5352C114.04 43.6152 113.86 43.6852 113.6 43.7452C113.36 43.8052 113.1 43.8352 112.82 43.8352C112.48 43.8352 112.18 43.7752 111.92 43.6552C111.66 43.5552 111.48 43.4052 111.38 43.2052C111.16 42.8052 110.87 42.2252 110.51 41.4652C110.17 40.6852 109.8 39.8052 109.4 38.8252C109 37.8452 108.59 36.8352 108.17 35.7952C107.77 34.7352 107.4 33.7252 107.06 32.7652C106.72 31.7852 106.44 30.9252 106.22 30.1852C106.36 29.9852 106.55 29.8252 106.79 29.7052C107.03 29.5852 107.27 29.5252 107.51 29.5252C107.87 29.5252 108.15 29.6152 108.35 29.7952C108.55 29.9752 108.72 30.2752 108.86 30.6952L110.72 36.0652C110.88 36.5252 111.09 37.0952 111.35 37.7752C111.61 38.4552 111.87 39.1352 112.13 39.8152C112.39 40.4952 112.6 41.0652 112.76 41.5252H112.88C113.68 39.5052 114.43 37.5152 115.13 35.5552C115.83 33.5752 116.43 31.6452 116.93 29.7652C117.19 29.6052 117.53 29.5252 117.95 29.5252ZM135.059 36.7252C135.059 38.2052 134.779 39.4952 134.219 40.5952C133.659 41.6952 132.869 42.5452 131.849 43.1452C130.829 43.7452 129.629 44.0452 128.249 44.0452C126.869 44.0452 125.659 43.7452 124.619 43.1452C123.599 42.5452 122.809 41.6952 122.249 40.5952C121.689 39.4952 121.409 38.2052 121.409 36.7252C121.409 35.2252 121.689 33.9352 122.249 32.8552C122.829 31.7552 123.629 30.9052 124.649 30.3052C125.689 29.7052 126.889 29.4052 128.249 29.4052C129.609 29.4052 130.799 29.7052 131.819 30.3052C132.839 30.9052 133.629 31.7552 134.189 32.8552C134.769 33.9352 135.059 35.2252 135.059 36.7252ZM128.249 31.3852C126.909 31.3852 125.839 31.8652 125.039 32.8252C124.259 33.7652 123.869 35.0652 123.869 36.7252C123.869 38.4052 124.249 39.7152 125.009 40.6552C125.789 41.5952 126.869 42.0652 128.249 42.0652C129.609 42.0652 130.669 41.5952 131.429 40.6552C132.209 39.6952 132.599 38.3852 132.599 36.7252C132.599 35.0652 132.209 33.7652 131.429 32.8252C130.669 31.8652 129.609 31.3852 128.249 31.3852ZM139.011 35.7352L141.411 36.0952V43.5952C141.311 43.6352 141.161 43.6752 140.961 43.7152C140.761 43.7752 140.541 43.8052 140.301 43.8052C139.881 43.8052 139.561 43.7252 139.341 43.5652C139.121 43.3852 139.011 43.1052 139.011 42.7252V35.7352ZM141.411 37.2352L139.011 36.9052V24.2152C139.111 24.1752 139.261 24.1352 139.461 24.0952C139.681 24.0352 139.901 24.0052 140.121 24.0052C140.561 24.0052 140.881 24.0952 141.081 24.2752C141.301 24.4352 141.411 24.7052 141.411 25.0852V37.2352ZM146.154 38.5852V35.8552H148.554V38.4652C148.554 39.7452 148.894 40.6652 149.574 41.2252C150.254 41.7852 151.194 42.0652 152.394 42.0652C153.194 42.0652 153.874 41.9852 154.434 41.8252C154.994 41.6452 155.434 41.4652 155.754 41.2852V35.8552H158.154V41.1952C158.154 41.6152 158.094 41.9552 157.974 42.2152C157.874 42.4552 157.614 42.6952 157.194 42.9352C156.754 43.1952 156.124 43.4452 155.304 43.6852C154.484 43.9252 153.504 44.0452 152.364 44.0452C151.044 44.0452 149.914 43.8552 148.974 43.4752C148.054 43.0752 147.354 42.4752 146.874 41.6752C146.394 40.8552 146.154 39.8252 146.154 38.5852ZM158.154 37.4152H155.754V29.8552C155.854 29.8152 156.004 29.7752 156.204 29.7352C156.424 29.6752 156.644 29.6452 156.864 29.6452C157.304 29.6452 157.624 29.7352 157.824 29.9152C158.044 30.0752 158.154 30.3552 158.154 30.7552V37.4152ZM148.554 37.4152H146.154V29.8552C146.254 29.8152 146.404 29.7752 146.604 29.7352C146.824 29.6752 147.054 29.6452 147.294 29.6452C147.714 29.6452 148.024 29.7352 148.224 29.9152C148.444 30.0752 148.554 30.3552 148.554 30.7552V37.4152ZM174.648 34.5052V37.5652H172.248V34.6252C172.248 33.5052 171.928 32.6852 171.288 32.1652C170.668 31.6452 169.828 31.3852 168.768 31.3852C167.968 31.3852 167.258 31.4852 166.638 31.6852C166.018 31.8852 165.488 32.1152 165.048 32.3752V37.5652H162.648V32.4952C162.648 32.0752 162.728 31.7352 162.888 31.4752C163.068 31.1952 163.368 30.9252 163.788 30.6652C164.308 30.3652 164.998 30.0852 165.858 29.8252C166.718 29.5452 167.688 29.4052 168.768 29.4052C170.588 29.4052 172.018 29.8252 173.058 30.6652C174.118 31.4852 174.648 32.7652 174.648 34.5052ZM162.648 35.9152H165.048V43.5952C164.948 43.6352 164.798 43.6752 164.598 43.7152C164.398 43.7752 164.178 43.8052 163.938 43.8052C163.518 43.8052 163.198 43.7252 162.978 43.5652C162.758 43.3852 162.648 43.1052 162.648 42.7252V35.9152ZM172.248 35.9152H174.648V43.5952C174.548 43.6352 174.388 43.6752 174.168 43.7152C173.968 43.7752 173.758 43.8052 173.538 43.8052C173.098 43.8052 172.768 43.7252 172.548 43.5652C172.348 43.3852 172.248 43.1052 172.248 42.7252V35.9152Z" fill="white"/>
<path d="M84.1783 51.931L81.6983 46.291H82.5943L84.7063 51.235H84.4183L86.5383 46.291H87.3943L84.9063 51.931H84.1783ZM89.9832 49.107C89.9832 48.515 90.0872 48.003 90.2952 47.571C90.5032 47.139 90.8045 46.8057 91.1992 46.571C91.5992 46.3364 92.0738 46.219 92.6232 46.219C93.1672 46.219 93.6365 46.3364 94.0312 46.571C94.4258 46.8057 94.7298 47.139 94.9432 47.571C95.1618 48.003 95.2712 48.5124 95.2712 49.099C95.2712 49.691 95.1618 50.2057 94.9432 50.643C94.7298 51.075 94.4232 51.411 94.0232 51.651C93.6285 51.8857 93.1618 52.003 92.6232 52.003C92.0738 52.003 91.6018 51.8857 91.2072 51.651C90.8125 51.411 90.5085 51.075 90.2952 50.643C90.0872 50.2057 89.9832 49.6937 89.9832 49.107ZM90.8552 49.107C90.8552 49.7897 91.0045 50.323 91.3032 50.707C91.6018 51.091 92.0418 51.283 92.6232 51.283C93.1885 51.283 93.6258 51.0937 93.9352 50.715C94.2445 50.331 94.3992 49.795 94.3992 49.107C94.3992 48.419 94.2445 47.8857 93.9352 47.507C93.6312 47.1284 93.1938 46.939 92.6232 46.939C92.0418 46.939 91.6018 47.1284 91.3032 47.507C91.0045 47.8857 90.8552 48.419 90.8552 49.107ZM98.5424 51.931V46.291H99.3744V51.219H102.142V51.931H98.5424ZM107.377 52.003C106.593 52.003 106.009 51.8057 105.625 51.411C105.247 51.0164 105.057 50.4324 105.057 49.659V46.291H105.889V49.643C105.889 50.187 106.007 50.5977 106.241 50.875C106.481 51.147 106.86 51.283 107.377 51.283C107.868 51.283 108.239 51.147 108.489 50.875C108.74 50.5977 108.865 50.187 108.865 49.643V46.291H109.681V49.659C109.681 50.4324 109.487 51.0164 109.097 51.411C108.708 51.8057 108.135 52.003 107.377 52.003ZM113.105 51.931V46.291H113.745L117.209 50.835H117.009V46.291H117.785V51.931H117.153L113.697 47.387H113.881V51.931H113.105ZM122.59 51.931V46.987H120.662V46.291H125.35V46.987H123.422V51.931H122.59ZM127.677 51.931L130.189 46.291H130.901L133.453 51.931H132.597L131.901 50.331L132.253 50.555H128.837L129.213 50.331L128.517 51.931H127.677ZM130.533 47.203L129.317 50.075L129.125 49.891H131.965L131.805 50.075L130.565 47.203H130.533ZM136.331 51.931V46.291H138.715C139.318 46.291 139.785 46.435 140.115 46.723C140.446 47.0057 140.611 47.403 140.611 47.915C140.611 48.251 140.537 48.539 140.387 48.779C140.238 49.019 140.027 49.203 139.755 49.331C139.483 49.4537 139.163 49.515 138.795 49.515L138.923 49.387H139.139C139.358 49.387 139.553 49.443 139.723 49.555C139.899 49.667 140.043 49.8457 140.155 50.091L140.963 51.931H140.051L139.251 50.083C139.171 49.8644 139.046 49.723 138.875 49.659C138.71 49.595 138.505 49.563 138.259 49.563H137.163V51.931H136.331ZM137.163 48.931H138.579C138.979 48.931 139.281 48.8457 139.483 48.675C139.691 48.5044 139.795 48.259 139.795 47.939C139.795 47.6137 139.691 47.3684 139.483 47.203C139.281 47.0377 138.979 46.955 138.579 46.955H137.163V48.931ZM144.042 51.931V46.291H144.874V51.931H144.042ZM147.747 51.931L150.259 46.291H150.971L153.523 51.931H152.667L151.971 50.331L152.323 50.555H148.907L149.283 50.331L148.587 51.931H147.747ZM150.603 47.203L149.387 50.075L149.195 49.891H152.035L151.875 50.075L150.635 47.203H150.603ZM156.402 51.931V46.291H158.354C158.988 46.291 159.524 46.4004 159.962 46.619C160.404 46.8377 160.738 47.1577 160.962 47.579C161.191 47.995 161.306 48.5044 161.306 49.107C161.306 49.7044 161.191 50.2137 160.962 50.635C160.738 51.0564 160.404 51.379 159.962 51.603C159.524 51.8217 158.988 51.931 158.354 51.931H156.402ZM157.234 51.235H158.306C159.031 51.235 159.57 51.059 159.922 50.707C160.279 50.355 160.458 49.8217 160.458 49.107C160.458 48.3924 160.279 47.8617 159.922 47.515C159.57 47.163 159.031 46.987 158.306 46.987H157.234V51.235ZM164.374 49.107C164.374 48.515 164.478 48.003 164.686 47.571C164.894 47.139 165.195 46.8057 165.59 46.571C165.99 46.3364 166.464 46.219 167.014 46.219C167.558 46.219 168.027 46.3364 168.422 46.571C168.816 46.8057 169.12 47.139 169.334 47.571C169.552 48.003 169.662 48.5124 169.662 49.099C169.662 49.691 169.552 50.2057 169.334 50.643C169.12 51.075 168.814 51.411 168.414 51.651C168.019 51.8857 167.552 52.003 167.014 52.003C166.464 52.003 165.992 51.8857 165.598 51.651C165.203 51.411 164.899 51.075 164.686 50.643C164.478 50.2057 164.374 49.6937 164.374 49.107ZM165.246 49.107C165.246 49.7897 165.395 50.323 165.694 50.707C165.992 51.091 166.432 51.283 167.014 51.283C167.579 51.283 168.016 51.0937 168.326 50.715C168.635 50.331 168.79 49.795 168.79 49.107C168.79 48.419 168.635 47.8857 168.326 47.507C168.022 47.1284 167.584 46.939 167.014 46.939C166.432 46.939 165.992 47.1284 165.694 47.507C165.395 47.8857 165.246 48.419 165.246 49.107Z" fill="white"/>
</svg>
